<svg id="Capa_2" data-name="Capa 2" xmlns="http://www.w3.org/2000/svg" viewBox="0 0 1186.82 124.44"><defs><style>.cls-1{fill:#fff;}.cls-2{fill:#f7c31c;}.cls-3{fill:#74b153;}.cls-4{fill:#70ae4f;}.cls-5{fill:#f7ca24;}.cls-6{fill:#6aa949;}.cls-7{fill:#e2b3d3;}.cls-8{fill:#d75594;}.cls-9{fill:#d44d8b;}.cls-10{fill:#76b356;}.cls-11{fill:#f9cb28;}.cls-12{fill:#72b050;}.cls-13{fill:#d5508e;}.cls-14{fill:#e3b9d7;}.cls-15{fill:#cf4383;}.cls-16{fill:#d75a95;}.cls-17{fill:#2aade4;}.cls-18{fill:#1e3e8a;}.cls-19{fill:#f7c620;}.cls-20{fill:#ea6123;}.cls-21{fill:#eb6426;}.cls-22{fill:#ec672b;}.cls-23{fill:#ea5f21;}.cls-24{fill:#e9541d;}.cls-25{fill:#ed6b30;}.cls-26{fill:#27a8e0;}.cls-27{fill:#1f438f;}.cls-28{fill:#203b7d;}.cls-29{fill:#244894;}.cls-30{fill:#3757a2;}.cls-31{fill:#e4b7d6;}.cls-32{fill:#e3b5d5;}.cls-33{fill:#e4b6d6;}.cls-34{fill:#deadd0;}.cls-35{fill:#d9a1c9;}.cls-36{fill:#cf3f80;}.cls-37{fill:#28a6df;}.cls-38{fill:#1f3d84;}.cls-39{fill:#2cafe5;}</style></defs><path class="cls-1" d="M12.55,0A50.63,50.63,0,0,0,22.93,26.9C32.92,39.79,26,53.8,26,53.8S19.85,71.7,36.38,65.92,51,39,51,39s28,.53,37.65-30.47c0,0,4.23-2.42,8.07,0,0,0-23.06,8.18-11.53,36.61,0,0-35.73-1.15-52.64,29.2,0,0-4.61,21.14,10.38,6.54S96.7,70,96.7,70,76.33,76.29,80.56,99c0,0,6.19,11.53,9.82,1.93s30.14-11.91,40.9-6.15,72.61,25,84.53,26.89,52.63,7.69,66.08-27.28c0,0,11.91-25.35-11.91-49.18,0,0-1.92-11.52,37.65-17.67,0,0,44.19-5.38,83,15.75,0,0-36.5,10.38-33.81,45.73,0,0,0,24.64,33.81,34.22,0,0,19.6,5,20.37-9.63,0,0,19.59-26.9,45.34-22.67s29.58,3.07,106.81,21.9,214.39-5,249.36-61.09c0,0,27.28,26.12,50,1.15,0,0,1.15,30.35,36.5,31.5s33.81-33,33.81-33,35.35,23,47.64-16.14c0,0,41.88,30,86.83,30S1154.78,61.26,1199.38,0Z" transform="translate(-12.55 0.43)"/><path class="cls-2" d="M22.16.12S35.22,35.17,36,36.71,36,59,36,59s11.53-4,9.61-27.19c0,.35,3.58.74,3.85.77a32.12,32.12,0,0,0,11.14-.64,33.12,33.12,0,0,0,11.12-5c.37-.25,1.58-.6,1.55-1,.17-.15.34-.39.57-.59s.48-.27.69-.47c.84-.77,1.45-1.87,2.29-2.69a4.64,4.64,0,0,0,1-1.35,6,6,0,0,1,.78-1.14,9.57,9.57,0,0,0,1.26-3.17,11.57,11.57,0,0,0,0-2.12,5.39,5.39,0,0,0,0-1c-.07-.33-.31-.5-.37-.78-.27-1.2-.3-2.44-.61-3.62a6.75,6.75,0,0,1,.23-3.62c.06-.25.31-.31.37-.59s0-.71.06-1.09S81,.12,80.94.12Z" transform="translate(-12.55 0.43)"/><path class="cls-3" d="M17.16.12A172.42,172.42,0,0,0,27.92,26.9s8.84,13.51,4.61,24.34c0,0-6.91,17.36,3.46,7.76a16.32,16.32,0,0,0,4.22-6.18,17.65,17.65,0,0,0,1.07-6.52,28.42,28.42,0,0,0-.81-6.15c0-.1,0-.2-.07-.3-.11-.46-.24-.91-.37-1.37-.06-.22-.13-.45-.2-.67s-.06-.21-.08-.32a.78.78,0,0,0-.09-.21,1.59,1.59,0,0,0-.07-.2.36.36,0,0,1,0-.18.78.78,0,0,0,0-.21c0-.16,0-.31-.06-.47a2.81,2.81,0,0,0-.15-.55,2,2,0,0,1-.07-.35c0-.11-.05-.22-.07-.33S39,34.5,39,34.25s-.13-.35-.18-.53-.11-.36-.17-.54-.07-.25-.11-.37-.09-.19-.12-.28a1.93,1.93,0,0,0-.25-.63,3,3,0,0,1-.36-.81,4.62,4.62,0,0,0-.28-.48q-.36-.62-.66-1.26c0-.1-.13-.17-.18-.27l-.14-.28c-.09-.16-.21-.3-.29-.46s-.2-.28-.29-.42-.1-.16-.16-.24-.1-.09-.14-.15a1.65,1.65,0,0,0-.28-.41L35.19,27,35,26.73l-1.2-1.33a16.34,16.34,0,0,1-2-2.45c-.1-.17-.3-.47-.2-.68s.42-.19.61-.17a7.35,7.35,0,0,1,1.54.44c.91.33,1.79.71,2.67,1.11C48.29,29,59.27,34,76.33,22.11c0,0,8.07-5.56,4.61-22h-7.3v.1l0,.67c0,.4,0,.8-.08,1.2s-.1,1.08-.16,1.62-.16,1.3-.26,1.94-.23,1.44-.38,2.15-.33,1.51-.52,2.25l-.36,1.24a6.75,6.75,0,0,0-.25.76,4.08,4.08,0,0,1-.26.69,1.8,1.8,0,0,1-.08.21.47.47,0,0,0-.07.12,2.47,2.47,0,0,1-.19.36,2.73,2.73,0,0,0-.26.43,1.13,1.13,0,0,1-.12.18c-.07.1-.11.22-.19.32s-.2.31-.32.46A.83.83,0,0,0,70,15a.52.52,0,0,1-.11.19l-.42.5c-.1.13-.22.24-.32.37a3,3,0,0,1-.35.36c-.15.11-.26.26-.4.38s-.19.1-.26.19l-.12.13c-.22.2-.42.42-.66.6l-.25.18c-.13.1-.27.16-.4.26s-.5.39-.77.58a11.51,11.51,0,0,1-1.32.79c-.35.17-.73.3-1.08.49a2.69,2.69,0,0,1-.29.16l-.25.07a1.29,1.29,0,0,0-.16.09.5.5,0,0,1-.12,0,3.09,3.09,0,0,0-.51.18l-.49.17-1,.36a40.14,40.14,0,0,1-4.28,1.23,21,21,0,0,1-7.46.39,19.06,19.06,0,0,1-8.17-3.28,34.74,34.74,0,0,1-8.58-9.06L26,.12Z" transform="translate(-12.55 0.43)"/><path class="cls-4" d="M36.38.12s-1.93,10.59,11.52,14,16.91-1.79,18.83-14c0,0-5.37,0-5.38,0s0,.21.07.31.08.42.11.63a8.58,8.58,0,0,1,.1.87,9.21,9.21,0,0,1,0,1.05,8.74,8.74,0,0,1-.09,1.13,6.67,6.67,0,0,1-.25,1.16,5.64,5.64,0,0,1-.48,1.1,4.71,4.71,0,0,1-.76,1A4.53,4.53,0,0,1,59,8.13a5.91,5.91,0,0,1-1.47.49,8.66,8.66,0,0,1-.89.12l-.49,0H56s0,0-.07-.05-.19.08-.28.09a1.47,1.47,0,0,1-.21,0,.79.79,0,0,1-.22,0,3,3,0,0,0-.6,0,2.54,2.54,0,0,1-.39,0,2.11,2.11,0,0,0-.35,0c-.3,0-.6-.05-.9-.06a2.54,2.54,0,0,1-.39,0l-.26,0a.78.78,0,0,1-.3-.07.64.64,0,0,0-.41,0,1.84,1.84,0,0,1-.7-.08,8.26,8.26,0,0,1-2.16-.75C45.91,6.22,44.38,3.16,43.68.12Z" transform="translate(-12.55 0.43)"/><path class="cls-5" d="M123.41,16.88c.25-.09.18-1.23.19-1.51l.18-3.44S116.86.74,113.7,0a13.92,13.92,0,0,0-5-.34c-.38.05-.74.11-1.13.13-.62,0-.73.68-.84,1.19a1,1,0,0,0,0,.68,1.28,1.28,0,0,0,.29.4,3.78,3.78,0,0,0,.52.72,4.21,4.21,0,0,0,.55.39c.24.16.45.37.7.52a4.69,4.69,0,0,0,.78.31c.5.21.95.51,1.43.73s.92.45,1.38.68.75.42,1.14.61.58.13.8.34a4.54,4.54,0,0,0,.48.39c.15.13.26.12.42.21a1.1,1.1,0,0,1,.3.31c.46.56,1.12.69,1.12,1.44a19.41,19.41,0,0,0-.13,2.16A5.79,5.79,0,0,0,117,13a11.41,11.41,0,0,0,1.09,1.38,6.24,6.24,0,0,0,1.19,1.32c.36.22.73.42,1.08.64s.8.19,1.25.32c.19.05.23.18.45.17s.33-.21.51-.25C122.94,16.49,123.13,16.91,123.41,16.88Z" transform="translate(-12.55 0.43)"/><path class="cls-6" d="M49.48.12s-1.57,4.23,5,5.13a2.76,2.76,0,0,0,.49.07,5.53,5.53,0,0,0,1.15,0,1.69,1.69,0,0,0,1-.4.82.82,0,0,0,.22-.47,1.15,1.15,0,0,0,0-.32,1.66,1.66,0,0,0-.14-.43s0-.05,0-.08l-.05-.07a1,1,0,0,0-.3-.28c-.06,0-.11-.1-.18-.14s-.09,0-.12,0A.91.91,0,0,0,56.35,3l-.12,0-.14-.1a2,2,0,0,0-.4-.16,2.64,2.64,0,0,1-.57-.14c-.2-.09-.42-.1-.61-.18s-.33-.2-.5-.28-.36-.27-.56-.4l-.22-.13A1.49,1.49,0,0,1,53,1.33a3.83,3.83,0,0,1-.25-.44A2.62,2.62,0,0,1,52.56.4c0-.12,0-.26-.15-.28H49.48Z" transform="translate(-12.55 0.43)"/><path class="cls-7" d="M93.29,15.43A14.09,14.09,0,0,0,87.45,25c0,.16,0,.32-.07.48-1,7-1,4.49-.9,8.75s10.56-1,10.56-1l7.63-7.58,7.63-4.39v-3.6l-5-4.53S99.65,9.44,93.29,15.43Z" transform="translate(-12.55 0.43)"/><path class="cls-8" d="M93.14,46s-5.53-1.57-6.66-11.83c0,0,2.92,1.43,4.72.45a2.22,2.22,0,0,1-.3-2.77s2.32.75,3.44,0,.52-3.36-.82-4.56,1.64.22,2-2.32-1.65.67-2.17,0,.45-2.7,1.27-2.55,3.29-1.12,3.37,0,3.37-3.66,2.09-5.83,4-1,4.79.89,2-4.19,1-4.79,4.84,2.21,6.88,1.29,6.57,3.11,6.57,3.11a8.19,8.19,0,0,1,1.18,1.92,10.94,10.94,0,0,1,1.71,3.28c0,.24,0,.52,0,.75s.18.31.23.52a6,6,0,0,1,0,1.53,1.46,1.46,0,0,1-.76,1.29,3.92,3.92,0,0,1-1.68.81c-.55.11-1.16.33-1.7.4-.27,0-.57-.08-.84,0-.45.08-.87.36-1.28.46a2.47,2.47,0,0,0-.77.17,3.23,3.23,0,0,1-.42.2A43.39,43.39,0,0,0,108.79,31C99.28,35.94,94,43.87,93.14,46Z" transform="translate(-12.55 0.43)"/><path class="cls-6" d="M83.72.12c.46-.12,19.27,3.05,27.74,13,0,0,8.38,5.4,11.27,8.57,0,0,1.77-1.87,0-4.84S111.18,1.3,105.78,0Z" transform="translate(-12.55 0.43)"/><path class="cls-6" d="M113.7,0s9.21,7.92,9.82,11.18,2.75-3.08.7-4.75S119,0,119,0Z" transform="translate(-12.55 0.43)"/><path class="cls-9" d="M119,0s2,4.23,4.78,6.05A3.25,3.25,0,0,1,126.22,4s-.47-4-2.44-4Z" transform="translate(-12.55 0.43)"/><path class="cls-10" d="M130.94,7.79,126.22,4s-1-3.17-1.13-4h3.83S129.29,6.6,130.94,7.79Z" transform="translate(-12.55 0.43)"/><path class="cls-11" d="M132.44,0h-3.52s.67,6.52,2,7.79,1.8.68,3.29,2.32S133.18,1.41,132.44,0Z" transform="translate(-12.55 0.43)"/><path class="cls-12" d="M137.3,11.76,134.68,10S133.18,1,132.44,0l4.41.31S138.42,9.89,137.3,11.76Z" transform="translate(-12.55 0.43)"/><path class="cls-13" d="M152.57,22.46S157.58,6.2,166.49,0L136.85.31s2,10.48.45,11.45C137.3,11.76,147,16.7,152.57,22.46Z" transform="translate(-12.55 0.43)"/><path class="cls-14" d="M101.5,45.53S126,50,138.51,55.86l22.21-5.16,2-11.2,1.56-2s.58-21.33,11.88-37L172,0s-12.66,10.18-16.16,26.35c0,0-.27,11.69-4.18,5.26,0,0-9.81-17.1-24.75-22.31,0,0-2.16,12.89,1.78,21.47.07.15.14.3.22.45,4.23,8.57-5.06-.29-5.06-.29S105,32.29,101.5,45.53Z" transform="translate(-12.55 0.43)"/><path class="cls-15" d="M172.21,75.24s-12.37-20.84-7.89-37.79c0,0-2.63.1-2.24-5.26S165,14.47,166.49,14s-4.61-.49-7.24,9c0,0-.58,9.54-2.82,12.08,0,0-2.92-.1-2.24,2.63a2.4,2.4,0,0,1,0,1.19,1.7,1.7,0,0,1-.52.75A1.33,1.33,0,0,1,153,40a3.85,3.85,0,0,1-.68,0c-.23,0-.36-.17-.58-.25a5.83,5.83,0,0,1-1.27-.81c-.55-.38-1.08-.79-1.63-1.17A16.74,16.74,0,0,0,141,35c.48.45.93.93,1.38,1.41a52.91,52.91,0,0,1,3.73,4.45,34.76,34.76,0,0,1,3.79,6.27c.25.55.48,1.12.69,1.7a4.34,4.34,0,0,0,.36.83,2.66,2.66,0,0,1,.32.6,1.09,1.09,0,0,1-.74,1.19A5.54,5.54,0,0,1,147.05,50a2.74,2.74,0,0,0-.64-.53c-.24-.2-.46-.43-.72-.61s-.54-.28-.78-.47-.62-.6-.94-.89c-.52-.46-1.2-.78-1.68-1.27-.27-.27-.44-.72-.77-.93.14.08.1.21.1.35a3.32,3.32,0,0,0,.15.68,6.56,6.56,0,0,0,1,2,10.08,10.08,0,0,0,.83,1.22,12.51,12.51,0,0,0,1,1c.27.23.48.52.73.76s.46.27.52.48c.17.58-1,.82-1.36.87a8.67,8.67,0,0,1-4.67-.85c-3.21-1.47-9.54-6.82-18-8.67,0,0-4.48-3.62-5.45-7.31,0,0-3.6,2.15,0,6.82,0,0-3.49,3.51-1.6,5.26s4.27-2.15,14.12.58c0,0,8.62,2.44,6.77,5.26l2.82,2S165.49,68.81,172.21,75.24Z" transform="translate(-12.55 0.43)"/><path class="cls-16" d="M137.24,25.18s2.15,3.8,2.44,6.23,3.54.49,3.54.49,0-.37,0-.41c0-.42,0-.84,0-1.26a13.73,13.73,0,0,0-.13-1.91,2.43,2.43,0,0,0-.22-.89,1.73,1.73,0,0,1-.21-.25,2.41,2.41,0,0,0-.15-.33l-.34-.5a7.29,7.29,0,0,0-.73-.93,1.71,1.71,0,0,0-1.45-.6,4.36,4.36,0,0,0-.58.19A11.57,11.57,0,0,1,137.24,25.18Z" transform="translate(-12.55 0.43)"/><path class="cls-17" d="M181.29,0s-27.19,34.8,0,84.46c0,0-25.72-18.5-38.07-21.52l-11.41,1.89-2.89,6.23-14.68,5.28,10.85,12.27s31.47,4.54,52.42,15.68,65.52,19.82,83.08,7.55S283.06,85,278.15,65.2s-50.22-40.78-62.31-2.07c0,0-2.07,19.25-5.85,1.32S202.25,18.67,228.68.11Z" transform="translate(-12.55 0.43)"/><path class="cls-18" d="M200.74,0S181.1,20.08,183.93,49.15s17.75,45.13,43.62,49.66c0,0-36.63-1.32-65.52-17,0,0-24.46-7.59-23.18-11.82s18.08,2.57,18.08,2.57-12.69-8.31-13.71-9.63-21.78-16.22-51.43-11.7c0,0-47-3.22-55.51,29.45,0,0,41.63-31.35,86.33-9.26,0,0-43.14-5.09-36.13,27.38,0,0,9.78-18.5,38.61-10.2,0,0-.78-2.83,3.83-3,0,0-8.15-2.64-6.31-5.09,0,0,3.67-5.48,8.33-2.84,0,0,58.47,24,78.29,26.81s35.88,3.21,50.42-14.34c0,0,12.27-24.74-10.58-26.82,0,0-22.47,1.7-14.35,17,0,0,2.65,6.79,9.25,9.63,0,0-23.6,6.42-39.27-11.71,0,0-18.31-18.47-9.82-50.3,0,0,4-14,18.32-27.81Z" transform="translate(-12.55 0.43)"/><path class="cls-19" d="M272.11,0,271,33.48s17.56-11.33,46.64-12.84a142.3,142.3,0,0,1,52.3,7.29L368.78,8a91.62,91.62,0,0,0-19.26-8Z" transform="translate(-12.55 0.43)"/><path class="cls-20" d="M211.31,58.91S202.44,21.65,237,0h37.76A7.31,7.31,0,0,0,280,3.46s-6.14,1.13-5.77,5.67a7.38,7.38,0,0,0,3.4,2.1s-4.53,1.67-2.64,3.56,5.85,1.32,7.36.38-4,7.93-8.49,5.66l1.13,1.63s20.1-5,23-2.38-21.9-.35-22.28,7.85c0,0,3.81.79,6.42,0,0,0-17.7,7.27-17.18,14.24C264.93,42.17,224.72,22.22,211.31,58.91Z" transform="translate(-12.55 0.43)"/><path class="cls-21" d="M428.25,43.68S382.84,10.41,364.2,5.62A39.38,39.38,0,0,1,340.46,0h-3.4s20,9.5,24.54,10.64,4,11.14-3,7.93c0,0,5.1,4.53,2.83,4.53s-15.31-6.52-27.76-2.32c0,0,28.9,3.3,36.26,7.15,0,0,20.2,7.25,29.08,14.8Z" transform="translate(-12.55 0.43)"/><circle class="cls-22" cx="305.06" cy="6.35" r="5.66"/><ellipse class="cls-22" cx="323.75" cy="9.18" rx="5.48" ry="4.34"/><circle class="cls-22" cx="285.66" cy="7.11" r="4.67"/><circle class="cls-22" cx="270.69" cy="9.18" r="4.15"/><circle class="cls-22" cx="339.04" cy="13.34" r="4.15"/><path class="cls-17" d="M362.36,0c.75,0,54,22.34,84,50.66,0,0-21.9-3.58-32.29-2.07L399.93,53.5l-6.8,10.38-2.07,9.82,3.58,8.87,9.73,11.33,5.76,9.44s6-5.85,9.63-7.36,14.72-11.52,35.3-9.44c0,0,38.14,1.51,63.82,11.14s59.66,11.89,59.66,11.89l5.29-12.84,2.64-9.81-2.64-9.82V70l-6.42-9s-14.91-21.15-14-31.91c0,0,12.27,11.14,26.24,8.69S620.27,30.52,627.82,0H507.74S503,49.91,535.5,75.21c0,0,6.42,7.74-10.2.94s-68-44.74-76.66-51L411.07,0Z" transform="translate(-12.55 0.43)"/><path class="cls-18" d="M383.5,87.48c-.26.06,4.35-4.34,5.86-22.47,0,0,4.11-17,24.73-16.42,0,0-17,6-10,5.28l24.16.92S399.55,56.55,396,62c0,0-4.91,9.43,2.07,11.32,0,0,28.51-13.6,63.25-5.29,0,0,27.19,7,30.59,6.8,0,0-41.54-24.54-60.42-41.35,0,0-33.24-26.37-50.51-33.48h14.64s62.49,42.55,75,53.69,74.76,37.38,74.76,37.38,35.31,15.48,29.84,3c0,0,7.17-.38,2.83-3.21,0,0-39.46-17.11-45.5-41.41S524,13.53,530.78,0h11.51s-10.76,15.73-2.64,40.28c0,0,6.38,29.08,39.72,44.18,0,0,3.48-5.29,0-12.27,0,0,2.79,1.29,1.55-2.19a19.65,19.65,0,0,1-6.56-13.58s43.08,56.55,110.3,53.15c0,0-51.93,11.14-94,3,0,0-12.84-1.13-23.41-5.28,0,0,5.09.37,6.6-1.32,0,0-65.89-18.89-83.83-25.87s-83.07-14.54-89.49,1.7c0,0,2.45,11,14.35,5.28,0,0,12.65-7.17,32.85-5.47,0,0-41.73,6.23-38.52,16.8,0,0,2.1,4.43,6.72-.05,0,0-7.66,8-6.91,9.49S403.71,83.14,383.5,87.48Z" transform="translate(-12.55 0.43)"/><path class="cls-18" d="M570.43,0s2.07,11.77,15.48,12.52.56,5.29,0,5.29-12.46,9.25-1.32,12.65S609.6,8.81,606,0Z" transform="translate(-12.55 0.43)"/><circle class="cls-18" cx="540.88" cy="6.16" r="5.29"/><circle class="cls-18" cx="533.14" cy="33.92" r="3.78"/><circle class="cls-18" cx="537.86" cy="47.7" r="4.15"/><circle class="cls-18" cx="544.84" cy="58.21" r="3.4"/><circle class="cls-18" cx="554.47" cy="67.71" r="3.4"/><path class="cls-2" d="M717.51,0s-27.38,11.2-56.08,12c0,0-19.45,24.35-19.43,24.36l6.44,5.36,6.33,5.26,1.76,1.47c.48.39,1,1,1.63,1.13s.53.12.65.77a4.4,4.4,0,0,1,.16.88,5.46,5.46,0,0,0,0,1c.06.32.27.6.34.94a9.58,9.58,0,0,0,.38,1.26,9.91,9.91,0,0,0,.59,1.57c.33.57.8,1.09,1.18,1.63a15.56,15.56,0,0,0,4.12,4.05,12.34,12.34,0,0,0,5.83,1.92c.81.09,1.66.11,2.46.28.42.09,1,.11,1.37.23a2.34,2.34,0,0,1,.94.57c.87.87,1.87,1.66,2.84,2.46l3.23,2.69c.12.1.92.93,1.08.9S758,54.53,794.35.44Z" transform="translate(-12.55 0.43)"/><circle class="cls-23" cx="730.63" cy="18.81" r="5.38"/><circle class="cls-23" cx="712.7" cy="27.69" r="5.48"/><circle class="cls-24" cx="694.57" cy="41.28" r="4.53"/><circle class="cls-22" cx="676.82" cy="44.68" r="4.34"/><path class="cls-25" d="M571.75,40.85c-.43-.68,38.7,16.8,61-35.12,0,0,14.16,9.25,28.7,6.23,0,0,3.78,8.87-2.08,11.8s41.17-1,45.7-7.27c0,0-36.07,32.1-48.9,17.75,0,0,4.34,10.95,9.62,8.87,0,0-8.49,10,1.7,12.84,0,0-5.28,8.33,10.77,6,0,0,18.31-.76,24.35-3.41S683.9,76.15,670.12,72.94C670.12,72.94,594,76.53,571.75,40.85Z" transform="translate(-12.55 0.43)"/><path class="cls-21" d="M752.82.2s-3.4,13.08,8.87,14c0,0,10.2-2.2,8.87-14.22Z" transform="translate(-12.55 0.43)"/><path class="cls-26" d="M801.91,0s-14.54,35.37-80.44,66.71S584,59.54,582.13,56.71c0,0,51.92,71.18,147.08,41.72,0,0,63.44-15.48,97.24-76.65,0,0,9.63-11.84,14.92-21.78Z" transform="translate(-12.55 0.43)"/><path class="cls-27" d="M818,0S800,34.43,763.39,61.24c0,0-2.27,13.21,14.35-2.27,0,0,33.79-27.5,48.33-59Z" transform="translate(-12.55 0.43)"/><circle class="cls-28" cx="741.02" cy="70.43" r="3.96"/><circle class="cls-27" cx="729.69" cy="76.21" r="3.21"/><circle class="cls-29" cx="718.17" cy="82.25" r="3.59"/><circle class="cls-27" cx="704.77" cy="88.1" r="3.59"/><circle class="cls-27" cx="687.77" cy="91.69" r="6.8"/><circle class="cls-18" cx="670.97" cy="94.9" r="3.96"/><circle class="cls-18" cx="658.51" cy="96.03" r="4.15"/><circle class="cls-18" cx="642.84" cy="96.03" r="3.4"/><circle class="cls-30" cx="630.38" cy="93.96" r="3.4"/><path class="cls-31" d="M824.19,36.31S840.8,13.72,846.65,0h28.89S855.53,27.62,824.19,36.31Z" transform="translate(-12.55 0.43)"/><path class="cls-32" d="M883.09,0s3,22,15.11,31.59A83.48,83.48,0,0,0,910.09,0Z" transform="translate(-12.55 0.43)"/><path class="cls-33" d="M919.16,0s22.65,18.94,45.31,20.45c0,0-19.82-17.11-21.34-20.45Z" transform="translate(-12.55 0.43)"/><path class="cls-7" d="M819.28,43.11s-4.16,2.46,0,6.42c0,0,15.1,17,33.23,4.34s3.4-19.82,3.4-19.82Z" transform="translate(-12.55 0.43)"/><path class="cls-34" d="M865.72,40.66s-1.13,25.11,16.43,34,41-.75,43.61-14.72c0,0,3.78-20.58,0-28.33l-12.83-1.13-6.42,14.16-9.93,4.16-11.22-6.05-7.74-6.42Z" transform="translate(-12.55 0.43)"/><path class="cls-35" d="M929.16,41.41s11,16.5,28.7,10.58,18.69-20.4,18.69-20.4-5.85-2.45-7.36-3-12.27,1.89-12.27,1.89H944.65l-10.39,5.85Z" transform="translate(-12.55 0.43)"/><path class="cls-36" d="M878,3.65S836.27,46.7,819.28,43.11c0,0,4.74,6.8,20.21,4.34,0,0,3.76-.63,5.46.54s4.35-7.64,7.18-7.11,1.51,2.42,2.08,3.18,3.39-2.27,4.72-1.89a2.63,2.63,0,0,1,1.51,3.76c-1,1.51,3-5.84,5.28-5.27s4.53,3.92,4,5.64,7.36-7.15,9.44-4.51,2.83,9.15,2.08,11,2.26-1.75,3.39-1.18,0,6.53-1.51,7,5.1-.61,6.61,0,3.4,4.88,3.59,7.93S898,52.36,899.71,52s4.34,13.31,3.78,14.87,1.51-10,2.45-10,3.78,3.6,3.59,5.1-.74-11.15,0-11.71,5.27,2.57,5.08,3-3-8.27-3-9.78,4,3.59,4.35,4.72-3-17.18-2.27-16.62,11.76,14.88,12.65,15.68-.61-6.92,1.11-6.39,5.5,2,5.5,2-1.32-3.4,0-4,3,1.89,3,2.83.57-2.08,1.51-4.15,6.61,2.14,7.18,3.24-2.08-4.44-.76-5.54,10.76-.72,14.73,1,.56-4.24,9.06-1c0,0,.76-4.58,5.29-2.08,0,0,2.45-3.92-12.65-8.45S928,12.9,914.81,3.65c0,0-11.14,34.93-14.16,40.41S880.45,14.79,878,3.65Z" transform="translate(-12.55 0.43)"/><path class="cls-13" d="M858.55,0s-9.33,15.79-14.92,15.8c0,0,12.65,3.77,18.69-15.8Z" transform="translate(-12.55 0.43)"/><path class="cls-16" d="M891.78,0s1.13,8.87,3.78,10.23S898.76,0,898.76,0Z" transform="translate(-12.55 0.43)"/><path class="cls-16" d="M927.44,0c-.17,0,7.23,8.23,15.13,8.05a52,52,0,0,1-8.31-8Z" transform="translate(-12.55 0.43)"/><path class="cls-37" d="M1070.39,0l2.46,53.27,28.32,5.14s50.22-9.44,78-40.79L1182.54,0Z" transform="translate(-12.55 0.43)"/><path class="cls-38" d="M1193.12,0c-.19.82-10.27,16.61-15.14,18.91,0,0-.91-9.59-10.92-8.08,0,0,2.65-12.37-10.19-1.37s-37,35-69.86,40.64c0,0,2.07,3.4,8.87,1.7,0,0-3.59,2.64-1.51,3.21s9.63-.95,11.14,0-4.34,1.89-6.8,4.15S1008.27,68.4,955,4c0,0,54.19,24.62,95-4h28.32s-4.15,1.75-4.25,4,5.76,7.37,5.76,7.37-8.49,1.89-5.76,8.31,32.38-12.78,38.8-19.7h11.52s-8.68,16.11-47.58,30.46c0,0,.19,6.42,7.55,8.88,0,0-5.66,2.64-3,4.53,0,0,41.35-8.88,57.4-27s20-16.87,20-16.87Z" transform="translate(-12.55 0.43)"/><path class="cls-27" d="M1088.14,0s-1.32,6.48,4.15,5.92c0,0,5.67.06,4.72-5.92Z" transform="translate(-12.55 0.43)"/><path class="cls-39" d="M956.54,0c.94,0,41.73,20.52,84.4,0Z" transform="translate(-12.55 0.43)"/><path class="cls-18" d="M397.85,47.27s-54,12.08-27.94,57c0,0,17.94,17.44,33.8,11.27s0-.89,0-.89S411.45,87.1,377.65,92c0,0-7.6,3.18,4.53-9.94,0,0-3-22,15.86-35.75" transform="translate(-12.55 0.43)"/></svg>