<svg id="Capa_2" data-name="Capa 2" xmlns="http://www.w3.org/2000/svg" viewBox="0 0 2170.89 140.12"><defs><style>.cls-1{fill:#fff;}.cls-2{fill:#ea5f21;}.cls-3{fill:#2b95d3;}.cls-4{fill:#1f428d;}.cls-5{fill:#c22f6d;}.cls-6{fill:#e3b9d7;}.cls-7{fill:#69c3c4;}.cls-8{fill:#446b6f;}.cls-9{fill:#f7c41f;}.cls-10{fill:#ed6b30;}.cls-11{fill:#ec672b;}.cls-12{fill:#deaace;}.cls-13{fill:#d75391;}.cls-14{fill:#ea571f;}.cls-15{fill:#e3b5d5;}.cls-16{fill:#65c1c3;}.cls-17{fill:#41666b;}.cls-18{fill:#d75593;}.cls-19{fill:#f8c724;}.cls-20{fill:#e8521c;}.cls-21{fill:#ea6123;}.cls-22{fill:#4fbbb9;}.cls-23{fill:#f7c31c;}.cls-24{fill:#74b153;}.cls-25{fill:#70ae4f;}.cls-26{fill:#f7ca24;}.cls-27{fill:#6aa949;}.cls-28{fill:#e2b3d3;}.cls-29{fill:#d75594;}.cls-30{fill:#d44d8b;}.cls-31{fill:#76b356;}.cls-32{fill:#f9cb28;}.cls-33{fill:#72b050;}.cls-34{fill:#d5508e;}.cls-35{fill:#cf4383;}.cls-36{fill:#d75a95;}.cls-37{fill:#2aade4;}.cls-38{fill:#1e3e8a;}.cls-39{fill:#f7c620;}.cls-40{fill:#eb6426;}.cls-41{fill:#e9541d;}.cls-42{fill:#27a8e0;}.cls-43{fill:#1f438f;}.cls-44{fill:#203b7d;}.cls-45{fill:#244894;}.cls-46{fill:#3757a2;}.cls-47{fill:#e4b7d6;}.cls-48{fill:#e4b6d6;}.cls-49{fill:#deadd0;}.cls-50{fill:#d9a1c9;}.cls-51{fill:#cf3f80;}.cls-52{fill:#28a6df;}.cls-53{fill:#1f3d84;}.cls-54{fill:#2cafe5;}</style></defs><path class="cls-1" d="M15.51,0S6,42.93,36.7,74.71c0,0,21.73,20.65,48.36,18.48,0,0,26.62-1.63,42.11-20.11,0,0,33.69-31.51-1.09-73.08Z" transform="translate(-14.12 0.43)"/><path class="cls-2" d="M65,0s-2.44,22.82,3.81,28.53c0,0,1.63-28.53,13-28.53Z" transform="translate(-14.12 0.43)"/><path class="cls-3" d="M20.94,0S8.17,82.05,81.86,87.48h1.58l.16,0h.16l.16,0,.18,0,.17,0,.19,0,.19,0,.2,0,.2,0,.21,0,.21,0,.22,0,.22,0,.23,0,.24,0,.24,0,.24,0,.25,0,.25,0,.26,0,.27,0,.27,0,.27,0,.28,0,.28,0,.29,0,.29-.06.3,0,.3-.06.3-.06.31-.06.31-.07.31-.06.32-.07L92,86l.33-.08.33-.07.33-.08.34-.08.34-.08.34-.09.35-.09.35-.09.35-.09.35-.09.36-.1.36-.1.36-.11.37-.1.37-.11.37-.11.37-.12.37-.11.38-.13.38-.12.38-.13.38-.13.38-.13.39-.13.39-.14.39-.14.39-.15.39-.15.39-.15.4-.16.39-.16.4-.16.4-.16.4-.17.4-.17.4-.18.4-.18.4-.18.4-.19.4-.19.41-.2.4-.19.4-.21.41-.2.4-.21.41-.22.4-.21.4-.23.41-.22.4-.23.4-.23.4-.24.4-.24.4-.25.4-.25.4-.26.4-.26.4-.26.39-.27.4-.27.39-.28.39-.28.39-.28.39-.29.39-.3.39-.3.38-.3.38-.31.38-.32.38-.32.38-.32.37-.33.38-.33.37-.34.36-.34.37-.35.36-.35.36-.36.36-.36.36-.37c.11-.13.23-.25.35-.38l.35-.38.34-.38.35-.39.34-.39.33-.4.34-.41.33-.41.32-.42.33-.42c.1-.14.21-.28.31-.43s.22-.28.32-.43l.31-.44.31-.44.3-.45.3-.46.3-.46c.1-.15.19-.31.29-.47s.19-.31.29-.47l.28-.48c.1-.16.19-.32.28-.48l.27-.49.27-.5.27-.5.26-.51.25-.52c.09-.17.17-.35.25-.52s.17-.35.25-.53l.24-.53c.08-.18.16-.36.23-.54s.16-.36.23-.55.16-.36.23-.55.15-.37.22-.56l.21-.56.21-.57c.07-.2.14-.39.2-.58l.2-.59c.06-.19.13-.39.19-.59s.12-.39.19-.59.12-.41.17-.61l.18-.61c.05-.2.11-.41.16-.62s.11-.41.17-.62l.15-.63.15-.64c.05-.21.09-.43.14-.64s.09-.44.14-.65l.12-.66c.05-.22.09-.44.13-.67s.07-.44.11-.67.08-.45.11-.68.07-.45.1-.68.07-.46.1-.7.06-.46.08-.7.06-.47.08-.7.05-.48.08-.72l.06-.72.06-.73c0-.24,0-.49.05-.73s0-.5.05-.75l0-.75,0-.76c0-.25,0-.51,0-.76s0-.52,0-.77,0-.52,0-.79,0-.52,0-.78,0-.53,0-.8,0-.27,0-.4v-.2a.24.24,0,0,0,0-.08s0-.09,0-.13v-.09s0,0,0-.05v0s0,0,0-.06l0-.15c-.06-.29-.13-.58-.19-.87l-.33-1.3c-.15-.56-.31-1.11-.48-1.67s-.41-1.32-.64-2-.53-1.49-.82-2.22-.66-1.62-1-2.41-.8-1.7-1.23-2.53-1-1.75-1.46-2.6-1.11-1.75-1.71-2.59-1.27-1.72-2-2.53S124.5,8,123.71,7.2A33.6,33.6,0,0,0,121.18,5a29.41,29.41,0,0,0-2.84-2,26.52,26.52,0,0,0-3.16-1.68A28.24,28.24,0,0,0,111.68,0H94.57S64.14,10.6,75.82,38.58c0,0-14.94,3-14.94-38.58Z" transform="translate(-14.12 0.43)"/><path class="cls-4" d="M37.79,0h9.5S44,32.06,63.05,49.72c0,0,18.75,13,37.77,0,0,0-20.38-12.23-7.88-25.54s30.7,1,22,22.49S78,67.38,78,67.38s-29.08,0-36.95-33.69C41.05,33.69,38.6,22.82,37.79,0Z" transform="translate(-14.12 0.43)"/><path class="cls-1" d="M252,0s-35,19.37-34.37,38.83c0,0,1.73,8.64-8.86,9.29,0,0-37.61,8.1-54.47-14.43,0,0-7.35-5.95-5.62-33.69Z" transform="translate(-14.12 0.43)"/><path class="cls-5" d="M198.86,0s-5.19,27.8,12.75,40.34c0,0,7.13-32.05,29.83-40.34Z" transform="translate(-14.12 0.43)"/><path class="cls-6" d="M153.9,0s-11,36.12,28.31,43.74c0,0,18.16,2.43,24.64-1.24,0,0-19.66-18.65-13.83-42.5Z" transform="translate(-14.12 0.43)"/><path class="cls-1" d="M265.91,0s-30.22,58-5.83,98.33,70.27,55.42,103.42,26c0,0,29.43-28.37,11.67-63.37,0,0-13.79-21.75-28.38-22.28,0,0-2.38-22.27,9.28-33.14a26.67,26.67,0,0,0,11.41.79s-11.94,30.77,13.39,43.23c0,0,20,12.46,46-5,0,0,15.91-8.75,9.82-22.28A26.89,26.89,0,0,1,437,0Z" transform="translate(-14.12 0.43)"/><path class="cls-7" d="M272,0s-37.65,66.51,0,106c0,0,34.48,42.69,74.52,22.8,0,0,49.32-24.92,18.82-73.45,0,0-29.58-28.64-50.06,2.39,0,0-10.13,17.5,7.37,33.67,0,0-28.37,4-33.41-48,0,0-.8-24.83,15.65-43.44Z" transform="translate(-14.12 0.43)"/><path class="cls-8" d="M285,0S267.77,19,269.1,54c0,0,1.06,41.11,39.51,60.2,0,0,38.71,9.28,48.52-25.46,0,0,4-28.9-17.23-26.52s-8.49,33.15,7.42,26c0,0-16.44,37.92-55.42.53,0,0-15.64-14.15-14.32-48.44,0,0,2.65-26.23,17-40.34Z" transform="translate(-14.12 0.43)"/><path class="cls-9" d="M309.14,0s-18.81,25.4-15.5,51.67c.72,5.7,39.1-13,48.11-13.54,0,0,1.86-31.12,10.88-38.13Z" transform="translate(-14.12 0.43)"/><path class="cls-10" d="M322.94,0s-1.6,6.31,6.62,8.7c0,0,7.95-1,5-8.7Z" transform="translate(-14.12 0.43)"/><circle class="cls-11" cx="307.49" cy="16.29" r="5.04"/><path class="cls-12" d="M378.61,0s-26,31.24,8.22,46.62c0,0,30.23,5.57,44-12.46,0,0-32-5.47-30.84-34.16Z" transform="translate(-14.12 0.43)"/><path class="cls-13" d="M404.33,0s5.84,28.85,28.91,29.65c0,0-8-9.71-1.33-29.65Z" transform="translate(-14.12 0.43)"/><path class="cls-14" d="M313.23,85.33s-13-.24-20-39.23c0,0,3.41,2.66,5,0,0,0,.79-23.35,7.16-30.24,0,0-5.13,14.58-2.19,24.48,0,0,3.78,5.22,7-2.21,0,0,5.57.8,6.36-5.56,0,0,6.63,3.71,7.43-2.92,0,0,4,.53,5-2.39l3.45-.89s.27-10.51,4.25-14.49c0,0-3,9.55-1.48,10.87,0,0,4.56,2,7-1.85l-.53,17.23s-22.8,1.59-30,17C311.79,55.1,302.2,70.75,313.23,85.33Z" transform="translate(-14.12 0.43)"/><path class="cls-1" d="M471.53,0c1.59,0-5.29,62.22,81.39,96,0,0,46.51,13.21,83.5,9S712,85.47,743.71,99.21c0,0,25.37,8.89,30.66,24.84,0,0,3.17,10.57,28,2.12,0,0,44.92-19,39.63-47,0,0,0-35.41-34.35-37,0,0,11.1-6.87,11.1-13.74,0,0,18-5.81,41.75,19,0,0-24.31,47.56,26.43,77.16,0,0,64.48,29.07,94.07-29.07,0,0,27.48-53.61,0-95.51Z" transform="translate(-14.12 0.43)"/><path class="cls-15" d="M752.72,53.68c-1.27-.18,9.44-6.43,13.31-18.88,0,0,27-10.85,47.22-8.16,0,0-3.43,13.31-21,16.74,0,0-5.15,3.38,4.73,4,0,0,37.34-2.33,37.77,22.57,0,0,9.76,47.22-47.06,53.23C787.65,123.23,811.53,62.27,752.72,53.68Z" transform="translate(-14.12 0.43)"/><path class="cls-16" d="M536.79,0c.86,0,17.58,36,61,32.22,1.21-.11,2.44-.1,3.65-.19q4.86-.36,9.68-1.1a94.36,94.36,0,0,0,13-2.72,3.49,3.49,0,0,0,.74-.33c.37-.2.82-.31,1.17-.53s.47-.34.7-.5.7-.45,1-.69a20.37,20.37,0,0,0,2.58-2.59c1.06-1.07,2.11-2.12,3.18-3.18.76-.76,1.51-1.54,2.25-2.31.53-.55,1-1.16,1.5-1.74S638.49,15,639,14.22c1.81-2.54,3.39-5.22,5-7.9a18,18,0,0,0,1.74-3.08c.23-.65.54-1.25.81-1.87a5.85,5.85,0,0,1,.91-1.71c-.11.13,0,.28-.25.35a1.63,1.63,0,0,1-.38,0h-110Z" transform="translate(-14.12 0.43)"/><path class="cls-17" d="M548,0s13.74,20.63,43.36,21.06c0,0,23.61-.43,31.34-2.58,0,0,.16,2.1-1.09,2.58,0,0,5.45-2,7.26-1.68,0,0-3.29,6.81-8.17,5.1,0,0,5.68,1.82,7.61-.34,0,0-1.52,3.41-4.44,4.14,0,0,23.34-8.38,24.32-11S655.92,13.52,661.71,0H629.62s-31.09,10.68-43.9,0H578.8s2,7,19.85,8.38c0,0,12.25,0,19.4-1.82,0,0,15.08-5.44,12-.79,0,0-2.61,2.27-9.87,4.31,0,0,8.85-1.36,7.94-.68S627,13.59,612,14.73s-25.63-.57-41.74-5.79c0,0-5.33-2.11-10.78-8.94Z" transform="translate(-14.12 0.43)"/><path class="cls-15" d="M478.84,0s-2.58,61,73,89.31c0,0,73,19.32,111.18,6.87,0,0,38.21-7.72,45.94-7.29.92.06.84-1.24.78-1.84a22.74,22.74,0,0,0-1.41-5.23c-.94-2.69-2-5.32-3.18-7.93-1.44-3.32-3-6.61-4.51-9.88-1.77-3.73-3.59-7.44-5.43-11.13q-2.93-5.85-5.91-11.66t-6-11.45q-1.42-2.71-2.87-5.43a9.41,9.41,0,0,1-1-2.6,3.41,3.41,0,0,0-.68-1.34c-.35-.44-.85-.61-1.25-1a6.47,6.47,0,0,1-.64-.91,6.82,6.82,0,0,0-.82-1.08c-.34-.32-.82-.42-1.11-.8-.62-.81-1.46-1.37-2-2.2-.16-.22-.21-.41-.44-.57s-.5-.16-.73-.42-.29-.57-.54-.81a3.48,3.48,0,0,0-1.06-.56,10.2,10.2,0,0,0-3.08-.69,5.73,5.73,0,0,1-1.07-.32,4.57,4.57,0,0,0-1.28,0,7.2,7.2,0,0,0-4.15,1.23c-.41.31-.91.5-1.28.84a31.3,31.3,0,0,0-2.19,2.41q-2,2.19-4.14,4.2a67.42,67.42,0,0,1-21.08,13.14,85.75,85.75,0,0,1-33.28,5.39S548.38,42.05,531.21,0Z" transform="translate(-14.12 0.43)"/><path class="cls-18" d="M495.46,0s7.33,57.37,76.11,74.72c0,0,49.52,13.68,103.62-20.71,0,0,4.11,7,7.56,5.41,0,0,.86,3.54-5.87,5.18,0,0,4.92,2.5,8.2-.43,0,0-6,6-6,7.68,0,0,3.63-1.56,6-.43,0,0-31,21.1-69.81,22.18,0,0,46.18.53,59-8.92,0,0,22.75-9.8,8.4,2.1,0,0,4.16,1.78-.63,5.79,0,0,31.07-7.54,57-.72s33.94,15.52,40.77,31.38c0,0,12.77-10.91,5.77-36.45s-31.84-28.87-45.14-27.47c0,0-6.29-2.45,3.85-6.82,0,0,16.27-10.67,19.25-27.47a32.76,32.76,0,0,1,2.62-17.14,140.83,140.83,0,0,1-18-7.88H714.81s-6.12,1.4-14.52,12.08c0,0-4.55,4-1.57-5.43A15.62,15.62,0,0,1,702.39,0H667.92S659.78,15.66,655,17.72c0,0,5.2-2.15,6.69-.75,0,0-1,5.25-3.58,5.6,0,0,8.57-3,10.14-1.22s-2.09,6.93-2.09,6.93,4-2.45,4.89-2.07-.17,5.11-2.1,4.93,3-.87,3.85.35-4.9,2.1-4.37,7.53c0,0,5.77-5.78,7.35-3.5,0,0,.52,3.67-2.45,4.2,0,0,3.85-.88,4,.87,0,0,2.45,1.75-5.25,5.08,0,0-40.93,25.36-82.4,22.21S517.47,33.76,511,0Z" transform="translate(-14.12 0.43)"/><circle class="cls-18" cx="597.65" cy="50.62" r="6.65"/><circle class="cls-18" cx="617.07" cy="45.22" r="6.65"/><circle class="cls-18" cx="635.61" cy="37.88" r="7.35"/><circle class="cls-18" cx="578.23" cy="50.62" r="5.53"/><circle class="cls-18" cx="560.74" cy="49.07" r="6.47"/><circle class="cls-18" cx="543.59" cy="42.6" r="6.82"/><path class="cls-19" d="M798.9,0l3.37,21.22s33.69-2.4,48.62,10.59L913.45,7.27l-7-7.27Z" transform="translate(-14.12 0.43)"/><path class="cls-11" d="M808,2.4s-1.41.84-4.55-2.4L781.55.45S774.18,2.84,771.14,6c0,0-1.95,20.39-3.47,22.23,0,0,27-7.46,34.6-7l7-.17s-3.25-.65-3.46-2.27,16.26-2.87,16.26-2.87l-17.35-1s1.74-3.25,3.8-3.14-4.67,0-4.56-1.85,2.17-3.9,4-3.47-6.07-1.62-5.2-2.6S808,2.4,808,2.4Z" transform="translate(-14.12 0.43)"/><path class="cls-11" d="M843,16.39c-.42.11,7.92,2.82,9.87,6.51s-1.84,5.64-4.93,6.29c0,0,12.2,8.89,14.36,12.68s11.5-14.2,18.33-11.92c0,0,21.8-8.25,35.57,2.92,0,0,14.75,11.39,14.64,20.93,0,0,2.89-32.34-17.43-46.53,0,0-5.13,1.64-9.57-.75s-7.27-5.89-8-6.52h-5.74s7.8,5.55,7.8,9.78c0,0-.65,3.25-3.79,3.57s-3.36-.75-4.45-1.51-2.38,3.13-4.88,2.27-4.66,2.59-6.51,0-2.6,4.23-3.36,4.56-5.42-2-7.15-1.09.1,3.26-1,3.58-3.14-.54-4.12.22-.43,2.06-1.41,2.28S850,14.55,843,16.39Z" transform="translate(-14.12 0.43)"/><path class="cls-14" d="M815,0s-.59,5.19,4.48,6.24,5.79-4.71,6.45-6.24Z" transform="translate(-14.12 0.43)"/><path class="cls-20" d="M832.46,0s-1,8.35,8.1,8.54,7.7-8.07,7.3-8.54Z" transform="translate(-14.12 0.43)"/><circle class="cls-21" cx="843.82" cy="5.69" r="5.14"/><path class="cls-22" d="M928.85,68.88s-1.49-31.22-21.59-34-38.53-.12-45.17,24.09,3.32,45.67,22.08,57.46,45.51,17.61,75.41-2.66c0,0,50.67-45.21,14-113.6L913.45,0S953.12,36,928.85,68.88Z" transform="translate(-14.12 0.43)"/><path class="cls-8" d="M935.59.12s43.74,60.17-7,89.27c0,0-33.33,6-19-5.33,0,0,10-8.22.66-22.45,0,0-19.66-14.88-27.66,6.78s18.33,30.67,22,32.33,61,12.67,60.66-56a99.82,99.82,0,0,0-16-44.61Z" transform="translate(-14.12 0.43)"/><path class="cls-1" d="M998.18,0a50.56,50.56,0,0,0,10.37,26.9c10,12.89,3.08,26.9,3.08,26.9s-6.15,17.9,10.37,12.12S1036.6,39,1036.6,39s28.05.53,37.66-30.47c0,0,4.22-2.42,8.06,0,0,0-23,8.18-11.52,36.61,0,0-35.73-1.15-52.64,29.2,0,0-4.61,21.14,10.37,6.54S1082.32,70,1082.32,70s-20.36,6.29-16.13,29c0,0,6.18,11.53,9.81,1.93s30.15-11.91,40.9-6.15,72.62,25,84.53,26.89,52.64,7.69,66.09-27.28c0,0,11.91-25.35-11.91-49.18,0,0-1.92-11.52,37.65-17.67,0,0,44.19-5.38,83,15.75,0,0-36.5,10.38-33.81,45.73,0,0,0,24.64,33.81,34.22,0,0,19.6,5,20.37-9.63,0,0,19.59-26.9,45.33-22.67s29.59,3.07,106.82,21.9,214.39-5,249.35-61.09c0,0,27.28,26.12,50,1.15,0,0,1.15,30.35,36.5,31.5s33.81-33,33.81-33,35.35,23,47.65-16.14c0,0,41.88,30,86.83,30S2140.41,61.26,2185,0Z" transform="translate(-14.12 0.43)"/><path class="cls-23" d="M1007.79.12s13.06,35.05,13.83,36.59,0,22.29,0,22.29,11.52-4,9.6-27.19c0,.35,3.58.74,3.86.77a32.05,32.05,0,0,0,11.13-.64,33.17,33.17,0,0,0,11.13-5c.36-.25,1.58-.6,1.55-1,.17-.15.33-.39.57-.59a7.51,7.51,0,0,0,.68-.47c.85-.77,1.46-1.87,2.3-2.69a4.64,4.64,0,0,0,1-1.35,6,6,0,0,1,.78-1.14,9.54,9.54,0,0,0,1.25-3.17,11.56,11.56,0,0,0,0-2.12,4.6,4.6,0,0,0,0-1c-.07-.33-.3-.5-.36-.78-.27-1.2-.3-2.44-.61-3.62a6.65,6.65,0,0,1,.23-3.62c.06-.25.3-.31.37-.59s0-.71.06-1.09,1.55-3.63,1.45-3.63Z" transform="translate(-14.12 0.43)"/><path class="cls-24" d="M1002.79.12a172.42,172.42,0,0,0,10.76,26.78s8.84,13.51,4.61,24.34c0,0-6.92,17.36,3.46,7.76a16.32,16.32,0,0,0,4.22-6.18,17.86,17.86,0,0,0,1.07-6.52,29.05,29.05,0,0,0-.81-6.15c0-.1,0-.2-.07-.3-.12-.46-.24-.91-.37-1.37-.07-.22-.13-.45-.2-.67s-.06-.21-.08-.32-.07-.14-.09-.21a1.59,1.59,0,0,0-.07-.2.36.36,0,0,1,0-.18.78.78,0,0,0,0-.21c0-.16,0-.31-.06-.47a3.75,3.75,0,0,0-.15-.55,2,2,0,0,1-.07-.35c0-.11,0-.22-.08-.33s-.14-.49-.21-.74-.13-.35-.19-.53-.11-.36-.16-.54-.07-.25-.12-.37-.08-.19-.11-.28a1.93,1.93,0,0,0-.25-.63,3,3,0,0,1-.36-.81,4.71,4.71,0,0,0-.29-.48q-.35-.62-.66-1.26c0-.1-.13-.17-.18-.27a2.44,2.44,0,0,0-.14-.28c-.09-.16-.2-.3-.29-.46a2.86,2.86,0,0,0-.29-.42c0-.08-.09-.16-.15-.24s-.1-.09-.14-.15a1.69,1.69,0,0,0-.29-.41.86.86,0,0,1-.14-.13c-.08-.08-.14-.18-.21-.26-.4-.45-.81-.89-1.21-1.33a16.28,16.28,0,0,1-2-2.45c-.11-.17-.3-.47-.21-.68s.43-.19.62-.17a7.52,7.52,0,0,1,1.54.44c.9.33,1.79.71,2.66,1.11,11.91,5.38,22.9,10.37,40-1.54,0,0,8.07-5.56,4.61-22h-7.3v.1l0,.67c0,.4,0,.8-.08,1.2s-.1,1.08-.16,1.62-.16,1.3-.26,1.94-.24,1.44-.38,2.15-.33,1.51-.53,2.25c-.11.42-.23.83-.36,1.24a6.7,6.7,0,0,0-.24.76,4.12,4.12,0,0,1-.27.69.86.86,0,0,1-.07.21.29.29,0,0,0-.07.12,1.82,1.82,0,0,1-.2.36,3.78,3.78,0,0,0-.26.43,1.08,1.08,0,0,1-.11.18c-.07.1-.12.22-.19.32s-.21.31-.32.46a.64.64,0,0,0-.14.22.44.44,0,0,1-.12.19c-.14.17-.28.33-.41.5l-.33.37a2.31,2.31,0,0,1-.34.36c-.15.11-.26.26-.4.38s-.2.1-.26.19l-.12.13c-.22.2-.42.42-.66.6l-.26.18c-.12.1-.27.16-.39.26l-.77.58a12.45,12.45,0,0,1-1.32.79c-.35.17-.73.3-1.08.49-.1.05-.19.12-.29.16l-.25.07a.61.61,0,0,0-.16.09.59.59,0,0,1-.13,0,3.34,3.34,0,0,0-.5.18l-.49.17-1.06.36a39.48,39.48,0,0,1-4.28,1.23,21,21,0,0,1-7.45.39,19,19,0,0,1-8.17-3.28,34.41,34.41,0,0,1-8.58-9.06L1011.63.12Z" transform="translate(-14.12 0.43)"/><path class="cls-25" d="M1022,.12s-1.92,10.59,11.53,14,16.9-1.79,18.82-14c0,0-5.37,0-5.37,0s0,.21.07.31.08.42.11.63.07.58.1.87,0,.7,0,1.05a11,11,0,0,1-.09,1.13,6.7,6.7,0,0,1-.26,1.16,5.64,5.64,0,0,1-.48,1.1,4.66,4.66,0,0,1-.75,1,4.39,4.39,0,0,1-1.09.77,5.84,5.84,0,0,1-1.46.49c-.3.06-.6.09-.9.12l-.48,0h-.13s0,0-.07-.05-.18.08-.27.09a1.47,1.47,0,0,1-.21,0c-.09,0-.14,0-.22,0a3.1,3.1,0,0,0-.61,0,2.38,2.38,0,0,1-.38,0,2.08,2.08,0,0,0-.36,0c-.3,0-.59-.05-.89-.06a2.54,2.54,0,0,1-.39,0l-.27,0a.73.73,0,0,1-.29-.07.67.67,0,0,0-.42,0,1.82,1.82,0,0,1-.69-.08,8.26,8.26,0,0,1-2.16-.75c-2.88-1.49-4.41-4.55-5.12-7.59Z" transform="translate(-14.12 0.43)"/><path class="cls-26" d="M1109,16.88c.25-.09.18-1.23.19-1.51l.17-3.44S1102.49.74,1099.32,0a13.87,13.87,0,0,0-5-.34c-.39.05-.74.11-1.13.13-.63,0-.73.68-.85,1.19a1.14,1.14,0,0,0,0,.68,1.71,1.71,0,0,0,.29.4,3.82,3.82,0,0,0,.53.72,4.21,4.21,0,0,0,.55.39c.24.16.45.37.7.52a4.37,4.37,0,0,0,.78.31c.5.21.94.51,1.43.73s.92.45,1.38.68.75.42,1.14.61.58.13.79.34a6,6,0,0,0,.49.39c.14.13.26.12.42.21a1.22,1.22,0,0,1,.29.31c.46.56,1.13.69,1.13,1.44a17.28,17.28,0,0,0-.13,2.16,5.41,5.41,0,0,0,.51,2.11,10.5,10.5,0,0,0,1.09,1.38,6,6,0,0,0,1.19,1.32c.35.22.73.42,1.08.64s.8.19,1.25.32c.18.05.23.18.45.17s.33-.21.51-.25C1108.57,16.49,1108.76,16.91,1109,16.88Z" transform="translate(-14.12 0.43)"/><path class="cls-27" d="M1035.11.12s-1.58,4.23,5,5.13a2.63,2.63,0,0,0,.49.07,5.43,5.43,0,0,0,1.14,0,1.67,1.67,0,0,0,1-.4.78.78,0,0,0,.23-.47.86.86,0,0,0,0-.32,1.64,1.64,0,0,0-.13-.43l0-.08a.43.43,0,0,1,0-.07,1,1,0,0,0-.3-.28l-.18-.14s-.09,0-.13,0A.83.83,0,0,0,1042,3l-.12,0s-.09-.07-.15-.1a1.88,1.88,0,0,0-.39-.16,2.64,2.64,0,0,1-.57-.14c-.2-.09-.42-.1-.62-.18s-.32-.2-.49-.28a5.66,5.66,0,0,1-.56-.4,1.59,1.59,0,0,1-.22-.13,1.18,1.18,0,0,1-.23-.27,2.76,2.76,0,0,1-.25-.44,2.08,2.08,0,0,1-.19-.49c0-.12,0-.26-.16-.28h-2.92Z" transform="translate(-14.12 0.43)"/><path class="cls-28" d="M1078.92,15.43a14.05,14.05,0,0,0-5.84,9.55c0,.16,0,.32-.07.48-1,7-1,4.49-.9,8.75s10.55-1,10.55-1l7.64-7.58,7.63-4.39v-3.6l-5-4.53S1085.28,9.44,1078.92,15.43Z" transform="translate(-14.12 0.43)"/><path class="cls-29" d="M1078.77,46s-5.54-1.57-6.66-11.83c0,0,2.92,1.43,4.71.45a2.24,2.24,0,0,1-.3-2.77s2.32.75,3.45,0,.52-3.36-.83-4.56,1.65.22,2-2.32-1.64.67-2.17,0,.45-2.7,1.28-2.55,3.29-1.12,3.36,0,3.37-3.66,2.1-5.83,4-1,4.79.89,2-4.19,1-4.79,4.84,2.21,6.87,1.29,6.58,3.11,6.58,3.11a8.54,8.54,0,0,1,1.18,1.92,11.42,11.42,0,0,1,1.71,3.28c0,.24-.05.52,0,.75s.18.31.23.52a6.53,6.53,0,0,1,0,1.53c0,.68-.24.88-.75,1.29a4,4,0,0,1-1.69.81c-.55.11-1.15.33-1.69.4-.27,0-.57-.08-.84,0-.46.08-.87.36-1.28.46a2.53,2.53,0,0,0-.78.17,2.71,2.71,0,0,1-.42.2,44.34,44.34,0,0,0-6.28,2.58C1084.91,35.94,1079.59,43.87,1078.77,46Z" transform="translate(-14.12 0.43)"/><path class="cls-27" d="M1069.35.12c.46-.12,19.27,3.05,27.74,13,0,0,8.38,5.4,11.27,8.57,0,0,1.77-1.87,0-4.84S1096.81,1.3,1091.41,0Z" transform="translate(-14.12 0.43)"/><path class="cls-27" d="M1099.33,0s9.2,7.92,9.81,11.18,2.75-3.08.71-4.75S1104.63,0,1104.63,0Z" transform="translate(-14.12 0.43)"/><path class="cls-30" d="M1104.63,0s2,4.23,4.79,6.05A3.25,3.25,0,0,1,1111.85,4s-.48-4-2.45-4Z" transform="translate(-14.12 0.43)"/><path class="cls-31" d="M1116.57,7.79,1111.85,4s-1-3.17-1.14-4h3.83S1114.92,6.6,1116.57,7.79Z" transform="translate(-14.12 0.43)"/><path class="cls-32" d="M1118.06,0h-3.52s.68,6.52,2,7.79,1.79.68,3.29,2.32S1118.81,1.41,1118.06,0Z" transform="translate(-14.12 0.43)"/><path class="cls-33" d="M1122.93,11.76,1120.3,10s-1.49-8.95-2.24-10l4.42.31S1124.05,9.89,1122.93,11.76Z" transform="translate(-14.12 0.43)"/><path class="cls-34" d="M1138.19,22.46s5-16.26,13.93-22.46l-29.64.31s2,10.48.45,11.45C1122.93,11.76,1132.58,16.7,1138.19,22.46Z" transform="translate(-14.12 0.43)"/><path class="cls-6" d="M1087.13,45.53s24.44,4.49,37,10.33l22.2-5.16,2.05-11.2,1.56-2s.58-21.33,11.88-37L1157.64,0S1145,10.18,1141.47,26.35c0,0-.27,11.69-4.17,5.26,0,0-9.82-17.1-24.75-22.31,0,0-2.16,12.89,1.78,21.47l.21.45c4.24,8.57-5.06-.29-5.06-.29S1090.63,32.29,1087.13,45.53Z" transform="translate(-14.12 0.43)"/><path class="cls-35" d="M1157.84,75.24S1145.47,54.4,1150,37.45c0,0-2.63.1-2.24-5.26s2.87-17.72,4.41-18.21-4.61-.49-7.24,9c0,0-.58,9.54-2.82,12.08,0,0-2.92-.1-2.24,2.63a2.4,2.4,0,0,1,0,1.19,1.7,1.7,0,0,1-.52.75,1.26,1.26,0,0,1-.68.39,3.86,3.86,0,0,1-.68,0c-.24,0-.37-.17-.59-.25a6.34,6.34,0,0,1-1.27-.81c-.55-.38-1.07-.79-1.62-1.17a16.74,16.74,0,0,0-7.82-2.74c.47.45.93.93,1.38,1.41a51,51,0,0,1,3.72,4.45,34.24,34.24,0,0,1,3.8,6.27c.25.55.48,1.12.68,1.7a5.13,5.13,0,0,0,.37.83,2.66,2.66,0,0,1,.32.6,1.1,1.1,0,0,1-.75,1.19,5.55,5.55,0,0,1-3.51-1.49,2.74,2.74,0,0,0-.64-.53c-.25-.2-.46-.43-.72-.61s-.54-.28-.78-.47-.63-.6-1-.89c-.51-.46-1.19-.78-1.67-1.27-.28-.27-.45-.72-.78-.93.15.08.11.21.11.35a3.32,3.32,0,0,0,.15.68,6.35,6.35,0,0,0,1,2,10,10,0,0,0,.82,1.22,14.43,14.43,0,0,0,1,1c.27.23.47.52.73.76s.46.27.52.48c.16.58-1,.82-1.36.87a8.67,8.67,0,0,1-4.67-.85c-3.21-1.47-9.55-6.82-18-8.67,0,0-4.48-3.62-5.45-7.31,0,0-3.61,2.15,0,6.82,0,0-3.5,3.51-1.6,5.26s4.26-2.15,14.11.58c0,0,8.62,2.44,6.77,5.26l2.83,2S1151.11,68.81,1157.84,75.24Z" transform="translate(-14.12 0.43)"/><path class="cls-36" d="M1122.87,25.18s2.14,3.8,2.43,6.23,3.55.49,3.55.49,0-.37,0-.41c0-.42,0-.84,0-1.26a13.73,13.73,0,0,0-.13-1.91,2.26,2.26,0,0,0-.23-.89c-.06-.09-.15-.14-.2-.25s-.09-.22-.15-.33-.24-.33-.34-.5a7.29,7.29,0,0,0-.73-.93,1.73,1.73,0,0,0-1.45-.6,3.93,3.93,0,0,0-.58.19A11.63,11.63,0,0,1,1122.87,25.18Z" transform="translate(-14.12 0.43)"/><path class="cls-37" d="M1166.92,0s-27.19,34.8,0,84.46c0,0-25.73-18.5-38.07-21.52l-11.42,1.89-2.89,6.23-14.68,5.28,10.85,12.27s31.47,4.54,52.43,15.68,65.52,19.82,83.08,7.55S1268.69,85,1263.78,65.2s-50.23-40.78-62.31-2.07c0,0-2.08,19.25-5.85,1.32s-7.75-45.78,18.69-64.34Z" transform="translate(-14.12 0.43)"/><path class="cls-38" d="M1186.36,0s-19.63,20.08-16.8,49.15,17.75,45.13,43.62,49.66c0,0-36.63-1.32-65.52-17,0,0-24.46-7.59-23.18-11.82s18.08,2.57,18.08,2.57-12.7-8.31-13.71-9.63-21.79-16.22-51.43-11.7c0,0-47-3.22-55.51,29.45,0,0,41.63-31.35,86.33-9.26,0,0-43.14-5.09-36.13,27.38,0,0,9.78-18.5,38.6-10.2,0,0-.77-2.83,3.83-3,0,0-8.14-2.64-6.3-5.09,0,0,3.67-5.48,8.33-2.84,0,0,58.47,24,78.29,26.81s35.87,3.21,50.41-14.34c0,0,12.28-24.74-10.57-26.82,0,0-22.47,1.7-14.35,17,0,0,2.64,6.79,9.25,9.63,0,0-23.6,6.42-39.27-11.71,0,0-18.32-18.47-9.82-50.3,0,0,4-14,18.32-27.81Z" transform="translate(-14.12 0.43)"/><path class="cls-39" d="M1257.73,0l-1.13,33.48s17.56-11.33,46.64-12.84a142.36,142.36,0,0,1,52.3,7.29L1354.4,8a91.69,91.69,0,0,0-19.25-8Z" transform="translate(-14.12 0.43)"/><path class="cls-21" d="M1196.94,58.91S1188.06,21.65,1222.62,0h37.76a7.31,7.31,0,0,0,5.19,3.46s-6.14,1.13-5.76,5.67a7.31,7.31,0,0,0,3.4,2.1s-4.53,1.67-2.64,3.56,5.85,1.32,7.36.38-4,7.93-8.5,5.66l1.14,1.63s20.09-5,23-2.38-21.9-.35-22.28,7.85c0,0,3.8.79,6.42,0,0,0-17.7,7.27-17.18,14.24C1250.56,42.17,1210.34,22.22,1196.94,58.91Z" transform="translate(-14.12 0.43)"/><path class="cls-40" d="M1413.88,43.68s-45.41-33.27-64.05-38.06A39.42,39.42,0,0,1,1326.08,0h-3.4s20,9.5,24.55,10.64,4,11.14-3,7.93c0,0,5.1,4.53,2.83,4.53s-15.31-6.52-27.76-2.32c0,0,28.89,3.3,36.26,7.15,0,0,20.2,7.25,29.07,14.8Z" transform="translate(-14.12 0.43)"/><circle class="cls-11" cx="1289.12" cy="6.35" r="5.66"/><ellipse class="cls-11" cx="1307.81" cy="9.18" rx="5.48" ry="4.34"/><circle class="cls-11" cx="1269.73" cy="7.11" r="4.67"/><circle class="cls-11" cx="1254.76" cy="9.18" r="4.15"/><circle class="cls-11" cx="1323.11" cy="13.34" r="4.15"/><path class="cls-37" d="M1348,0c.76,0,54,22.34,84,50.66,0,0-21.9-3.58-32.28-2.07l-14.16,4.91-6.8,10.38-2.08,9.82,3.59,8.87L1390,93.9l5.76,9.44s6-5.85,9.63-7.36,14.73-11.52,35.31-9.44c0,0,38.14,1.51,63.82,11.14s59.66,11.89,59.66,11.89l5.29-12.84,2.64-9.81-2.64-9.82V70l-6.42-9s-14.92-21.15-14-31.91c0,0,12.27,11.14,26.24,8.69S1605.9,30.52,1613.45,0H1493.37s-4.72,49.91,27.75,75.21c0,0,6.42,7.74-10.19.94s-68-44.74-76.66-51L1396.7,0Z" transform="translate(-14.12 0.43)"/><path class="cls-38" d="M1369.13,87.48c-.26.06,4.34-4.34,5.85-22.47,0,0,4.11-17,24.74-16.42,0,0-17,6-10,5.28l24.17.92s-28.7,1.76-32.29,7.21c0,0-4.91,9.43,2.08,11.32,0,0,28.51-13.6,63.25-5.29,0,0,27.19,7,30.59,6.8,0,0-41.54-24.54-60.42-41.35,0,0-33.24-26.37-50.51-33.48h14.64s62.49,42.55,75,53.69,74.77,37.38,74.77,37.38,35.31,15.48,29.83,3c0,0,7.18-.38,2.83-3.21,0,0-39.46-17.11-45.5-41.41s-8.49-35.94-1.7-49.47h11.52s-10.76,15.73-2.64,40.28c0,0,6.38,29.08,39.72,44.18,0,0,3.47-5.29,0-12.27,0,0,2.78,1.29,1.54-2.19A19.61,19.61,0,0,1,1560,56.42s43.08,56.55,110.29,53.15c0,0-51.92,11.14-94,3,0,0-12.84-1.13-23.42-5.28,0,0,5.1.37,6.61-1.32,0,0-65.89-18.89-83.83-25.87s-83.08-14.54-89.5,1.7c0,0,2.46,11,14.35,5.28,0,0,12.65-7.17,32.86-5.47,0,0-41.73,6.23-38.52,16.8,0,0,2.1,4.43,6.71-.05,0,0-7.65,8-6.9,9.49S1389.33,83.14,1369.13,87.48Z" transform="translate(-14.12 0.43)"/><path class="cls-38" d="M1556.05,0s2.08,11.77,15.48,12.52.57,5.29,0,5.29-12.46,9.25-1.32,12.65,25-21.65,21.38-30.46Z" transform="translate(-14.12 0.43)"/><circle class="cls-38" cx="1524.94" cy="6.16" r="5.29"/><circle class="cls-38" cx="1517.2" cy="33.92" r="3.78"/><circle class="cls-38" cx="1521.92" cy="47.7" r="4.15"/><circle class="cls-38" cx="1528.91" cy="58.21" r="3.4"/><circle class="cls-38" cx="1538.54" cy="67.71" r="3.4"/><path class="cls-23" d="M1703.13,0s-27.37,11.2-56.07,12c0,0-19.45,24.35-19.44,24.36l6.44,5.36,6.34,5.26,1.76,1.47c.48.39,1,1,1.63,1.13s.53.12.65.77a5.24,5.24,0,0,1,.16.88,6.54,6.54,0,0,0,0,1c.06.32.27.6.35.94a9.53,9.53,0,0,0,.37,1.26,10,10,0,0,0,.6,1.57c.33.57.79,1.09,1.17,1.63a15.75,15.75,0,0,0,4.13,4.05,12.34,12.34,0,0,0,5.82,1.92c.81.09,1.67.11,2.47.28.42.09,1,.11,1.36.23a2.27,2.27,0,0,1,.94.57c.88.87,1.88,1.66,2.84,2.46l3.24,2.69c.12.1.92.93,1.08.9s74.65-16.15,111-70.24Z" transform="translate(-14.12 0.43)"/><circle class="cls-2" cx="1714.7" cy="18.81" r="5.38"/><circle class="cls-2" cx="1696.76" cy="27.69" r="5.48"/><circle class="cls-41" cx="1678.63" cy="41.28" r="4.53"/><circle class="cls-11" cx="1660.89" cy="44.68" r="4.34"/><path class="cls-10" d="M1557.37,40.85c-.42-.68,38.71,16.8,61-35.12,0,0,14.16,9.25,28.7,6.23,0,0,3.77,8.87-2.08,11.8s41.16-1,45.69-7.27c0,0-36.06,32.1-48.9,17.75,0,0,4.34,10.95,9.63,8.87,0,0-8.5,10,1.7,12.84,0,0-5.29,8.33,10.76,6,0,0,18.32-.76,24.36-3.41s-18.69,17.56-32.48,14.35C1655.74,72.94,1579.65,76.53,1557.37,40.85Z" transform="translate(-14.12 0.43)"/><path class="cls-40" d="M1738.44.2s-3.4,13.08,8.88,14c0,0,10.19-2.2,8.87-14.22Z" transform="translate(-14.12 0.43)"/><path class="cls-42" d="M1787.53,0S1773,35.37,1707.1,66.71s-137.45-7.17-139.34-10c0,0,51.92,71.18,147.08,41.72,0,0,63.44-15.48,97.24-76.65,0,0,9.63-11.84,14.91-21.78Z" transform="translate(-14.12 0.43)"/><path class="cls-43" d="M1803.58,0S1785.64,34.43,1749,61.24c0,0-2.27,13.21,14.34-2.27,0,0,33.8-27.5,48.34-59Z" transform="translate(-14.12 0.43)"/><circle class="cls-44" cx="1725.08" cy="70.43" r="3.96"/><circle class="cls-43" cx="1713.75" cy="76.21" r="3.21"/><circle class="cls-45" cx="1702.24" cy="82.25" r="3.59"/><circle class="cls-43" cx="1688.83" cy="88.1" r="3.59"/><circle class="cls-43" cx="1671.84" cy="91.69" r="6.8"/><circle class="cls-38" cx="1655.03" cy="94.9" r="3.96"/><circle class="cls-38" cx="1642.57" cy="96.03" r="4.15"/><circle class="cls-38" cx="1626.9" cy="96.03" r="3.4"/><circle class="cls-46" cx="1614.44" cy="93.96" r="3.4"/><path class="cls-47" d="M1809.81,36.31S1826.43,13.72,1832.28,0h28.89S1841.15,27.62,1809.81,36.31Z" transform="translate(-14.12 0.43)"/><path class="cls-15" d="M1868.72,0s3,22,15.11,31.59A83.48,83.48,0,0,0,1895.72,0Z" transform="translate(-14.12 0.43)"/><path class="cls-48" d="M1904.78,0s22.66,18.94,45.32,20.45c0,0-19.83-17.11-21.34-20.45Z" transform="translate(-14.12 0.43)"/><path class="cls-28" d="M1804.9,43.11s-4.15,2.46,0,6.42c0,0,15.11,17,33.23,4.34s3.4-19.82,3.4-19.82Z" transform="translate(-14.12 0.43)"/><path class="cls-49" d="M1851.35,40.66s-1.13,25.11,16.43,34,41-.75,43.61-14.72c0,0,3.78-20.58,0-28.33l-12.84-1.13-6.42,14.16-9.93,4.16L1871,42.73l-7.75-6.42Z" transform="translate(-14.12 0.43)"/><path class="cls-50" d="M1914.79,41.41s11,16.5,28.7,10.58,18.69-20.4,18.69-20.4-5.85-2.45-7.36-3-12.28,1.89-12.28,1.89h-12.27l-10.38,5.85Z" transform="translate(-14.12 0.43)"/><path class="cls-51" d="M1863.62,3.65S1821.9,46.7,1804.9,43.11c0,0,4.74,6.8,20.22,4.34,0,0,3.76-.63,5.46.54s4.34-7.64,7.18-7.11,1.51,2.42,2.07,3.18,3.4-2.27,4.72-1.89a2.63,2.63,0,0,1,1.51,3.76c-1,1.51,3-5.84,5.29-5.27s4.53,3.92,4,5.64,7.37-7.15,9.45-4.51,2.83,9.15,2.07,11,2.27-1.75,3.4-1.18,0,6.53-1.51,7,5.1-.61,6.61,0,3.4,4.88,3.59,7.93,4.72-14.13,6.42-14.5,4.34,13.31,3.77,14.87,1.51-10,2.46-10,3.77,3.6,3.58,5.1-.73-11.15,0-11.71,5.28,2.57,5.09,3-3-8.27-3-9.78,4,3.59,4.34,4.72-3-17.18-2.26-16.62,11.76,14.88,12.65,15.68-.61-6.92,1.11-6.39,5.5,2,5.5,2-1.33-3.4,0-4,3,1.89,3,2.83.56-2.08,1.51-4.15,6.61,2.14,7.17,3.24-2.07-4.44-.75-5.54,10.76-.72,14.72,1,.57-4.24,9.07-1c0,0,.75-4.58,5.28-2.08,0,0,2.46-3.92-12.65-8.45s-32.28-11.9-45.5-21.15c0,0-11.14,34.93-14.16,40.41S1866.08,14.79,1863.62,3.65Z" transform="translate(-14.12 0.43)"/><path class="cls-34" d="M1844.18,0s-9.33,15.79-14.92,15.8c0,0,12.65,3.77,18.69-15.8Z" transform="translate(-14.12 0.43)"/><path class="cls-36" d="M1877.41,0s1.13,8.87,3.77,10.23S1884.39,0,1884.39,0Z" transform="translate(-14.12 0.43)"/><path class="cls-36" d="M1913.07,0c-.17,0,7.23,8.23,15.13,8.05a51.5,51.5,0,0,1-8.31-8Z" transform="translate(-14.12 0.43)"/><path class="cls-52" d="M2056,0l2.45,53.27,28.32,5.14s50.23-9.44,78-40.79L2168.17,0Z" transform="translate(-14.12 0.43)"/><path class="cls-53" d="M2178.74,0c-.18.82-10.26,16.61-15.13,18.91,0,0-.91-9.59-10.92-8.08,0,0,2.64-12.37-10.2-1.37s-37,35-69.86,40.64c0,0,2.08,3.4,8.88,1.7,0,0-3.59,2.64-1.51,3.21s9.63-.95,11.14,0-4.35,1.89-6.8,4.15S1993.9,68.4,1940.66,4c0,0,54.18,24.62,95-4H2064s-4.15,1.75-4.25,4,5.76,7.37,5.76,7.37-8.5,1.89-5.76,8.31S2092.08,6.92,2098.5,0H2110s-8.69,16.11-47.58,30.46c0,0,.19,6.42,7.55,8.88,0,0-5.66,2.64-3,4.53,0,0,41.35-8.88,57.4-27s20-16.87,20-16.87Z" transform="translate(-14.12 0.43)"/><path class="cls-43" d="M2073.77,0s-1.32,6.48,4.15,5.92c0,0,5.67.06,4.72-5.92Z" transform="translate(-14.12 0.43)"/><path class="cls-54" d="M1942.17,0c.94,0,41.72,20.52,84.39,0Z" transform="translate(-14.12 0.43)"/><path class="cls-38" d="M1383.48,47.27s-54,12.08-27.94,57c0,0,17.93,17.44,33.79,11.27s0-.89,0-.89,7.75-27.57-26-22.66c0,0-7.61,3.18,4.53-9.94,0,0-3-22,15.86-35.75" transform="translate(-14.12 0.43)"/></svg>